<svg width="512" height="512" viewBox="0 0 512 512" fill="none" xmlns="http://www.w3.org/2000/svg">
  <defs>
    <linearGradient id="gradient" x1="0%" y1="0%" x2="100%" y2="100%">
      <stop offset="0%" style="stop-color:#667eea;stop-opacity:1" />
      <stop offset="100%" style="stop-color:#764ba2;stop-opacity:1" />
    </linearGradient>
  </defs>
  
  <!-- Background -->
  <rect width="512" height="512" rx="115" fill="url(#gradient)"/>
  
  <!-- Document Icon -->
  <rect x="130" y="100" width="180" height="240" rx="15" fill="white" opacity="0.95"/>
  
  <!-- Text Lines on Document -->
  <line x1="165" y1="155" x2="275" y2="155" stroke="url(#gradient)" stroke-width="12" stroke-linecap="round"/>
  <line x1="165" y1="195" x2="295" y2="195" stroke="url(#gradient)" stroke-width="12" stroke-linecap="round"/>
  <line x1="165" y1="235" x2="270" y2="235" stroke="url(#gradient)" stroke-width="12" stroke-linecap="round"/>
  <line x1="165" y1="275" x2="290" y2="275" stroke="url(#gradient)" stroke-width="12" stroke-linecap="round"/>
  
  <!-- AI Sparkle -->
  <path d="M220 120 L225 110 L230 120 L240 115 L235 125 L245 130 L235 135 L240 145 L230 140 L225 150 L220 140 L210 145 L215 135 L205 130 L215 125 L210 115 Z" fill="#FFD700"/>
  
  <!-- Network/Share Nodes -->
  <circle cx="380" cy="350" r="50" fill="white"/>
  <circle cx="380" cy="350" r="38" fill="url(#gradient)"/>
  
  <circle cx="450" cy="280" r="35" fill="white"/>
  <circle cx="450" cy="280" r="25" fill="url(#gradient)"/>
  
  <circle cx="450" cy="420" r="35" fill="white"/>
  <circle cx="450" cy="420" r="25" fill="url(#gradient)"/>
  
  <circle cx="310" cy="400" r="35" fill="white"/>
  <circle cx="310" cy="400" r="25" fill="url(#gradient)"/>
  
  <!-- Connection Lines -->
  <line x1="390" y1="330" x2="435" y2="295" stroke="white" stroke-width="15" stroke-linecap="round"/>
  <line x1="390" y1="370" x2="435" y2="405" stroke="white" stroke-width="15" stroke-linecap="round"/>
  <line x1="350" y1="370" x2="330" y2="385" stroke="white" stroke-width="15" stroke-linecap="round"/>
  
  <!-- Arrow from document -->
  <path d="M 310 220 Q 340 250 360 300" stroke="white" stroke-width="12" fill="none" stroke-linecap="round" stroke-dasharray="8 8"/>
  <path d="M 360 300 L 350 290 L 360 295 L 370 290 Z" fill="white"/>
</svg>
